<?xml version="1.0" encoding="iso-8859-1"?>
<!-- Generator: Adobe Illustrator 18.0.0, SVG Export Plug-In . SVG Version: 6.00 Build 0)  -->
<!DOCTYPE svg PUBLIC "-//W3C//DTD SVG 1.1//EN" "http://www.w3.org/Graphics/SVG/1.1/DTD/svg11.dtd">
<svg version="1.1" id="Capa_1" xmlns="http://www.w3.org/2000/svg" xmlns:xlink="http://www.w3.org/1999/xlink" x="0px" y="0px"
	 viewBox="0 0 482 482" style="enable-background:new 0 0 482 482;" xml:space="preserve">
<path id="XMLID_146_" d="M474.119,230.046L324.665,179.78l54.482-67.083c1.668-2.048,1.511-5.014-0.356-6.874
	c-1.858-1.858-4.824-2.017-6.865-0.354l-68.451,55.597L251.967,7.878C250.386,3.172,245.972,0,241.005,0
	c-4.968,0-9.381,3.172-10.963,7.878l-51.508,153.18l-68.45-55.597c-2.04-1.662-5.005-1.504-6.874,0.354
	c-1.858,1.859-2.017,4.826-0.356,6.875l54.482,67.09L7.883,230.046c-4.707,1.581-7.879,5.995-7.879,10.962
	c0,4.968,3.172,9.381,7.879,10.963l152.79,51.382l-57.82,71.179c-1.661,2.049-1.502,5.023,0.356,6.881
	c1.86,1.86,4.826,2.009,6.874,0.349l69.828-56.713l50.131,149.075c1.583,4.705,5.995,7.877,10.963,7.877
	c4.967,0,9.381-3.172,10.962-7.877L302.1,325.048l69.826,56.713c2.041,1.66,5.015,1.512,6.874-0.349
	c1.859-1.857,2.017-4.84,0.356-6.881l-57.819-71.179l152.783-51.382c4.706-1.582,7.878-5.995,7.878-10.963
	C481.996,236.041,478.824,231.627,474.119,230.046z M434.142,241.008H274.937l34.154-42.055L434.142,241.008z M241.005,47.854
	v163.952l-43.306-35.175L241.005,47.854z M47.857,241.008h159.199l2.127,2.611l-32.944,40.56L47.857,241.008z M241.005,434.147
	V275.431l41.921,34.052L241.005,434.147z"/>
<g>
</g>
<g>
</g>
<g>
</g>
<g>
</g>
<g>
</g>
<g>
</g>
<g>
</g>
<g>
</g>
<g>
</g>
<g>
</g>
<g>
</g>
<g>
</g>
<g>
</g>
<g>
</g>
<g>
</g>
</svg>
